<svg xmlns="http://www.w3.org/2000/svg" width="256" height="256"><rect id="backgroundrect" width="100%" height="100%" x="0" y="0" fill="none" stroke="none"/><g class="currentLayer" style=""><title>Layer 1</title><path d="M128 230a102 102 0 1 1 102-102 102.116 102.116 0 0 1-102 102zm0-192a90 90 0 1 0 90 90 90.102 90.102 0 0 0-90-90zm44.583 143.193a6 6 0 0 0 2.189-8.198 54.027 54.027 0 0 0-93.543 0 6 6 0 1 0 10.387 6.008 42.194 42.194 0 0 1 20.038-17.705 41.959 41.959 0 0 1 46.045 9.003 42.194 42.194 0 0 1 6.686 8.703 5.997 5.997 0 0 0 8.198 2.189zM92 118a10 10 0 1 1 10-10 10.011 10.011 0 0 1-10 10zm72 0a10 10 0 1 1 10-10 10.011 10.011 0 0 1-10 10z" id="svg_1" class="selected" fill="#eb1a1a" fill-opacity="1"/></g></svg>